<?xml version="1.0" encoding="utf-8"?>
<!-- Generator: Adobe Illustrator 19.0.0, SVG Export Plug-In . SVG Version: 6.00 Build 0)  -->
<svg version="1.1" id="Layer_1" xmlns="http://www.w3.org/2000/svg" xmlns:xlink="http://www.w3.org/1999/xlink" x="0px" y="0px"
	 viewBox="0 0 361.3 71.2" style="enable-background:new 0 0 361.3 71.2;" xml:space="preserve">
<style type="text/css">
	.st0{fill:#010101;}
	.st1{fill:none;stroke:#010101;}
</style>
<g id="XMLID_54_">
	<g id="XMLID_86_">
		<path id="XMLID_96_" class="st0" d="M3.6,0.5v38.9h23.6v3.1H0.3v-42H3.6z"/>
		<path id="XMLID_93_" class="st0" d="M82,21.6c-0.1,11-7.1,21.7-21.2,21.7S39.6,32.6,39.6,21.5c0-11.3,7-21.6,21.2-21.6
			S82,10.2,82,21.6z M42.8,21.5c0.1,9.5,6.1,18.7,18,18.7c12,0,18.1-9.2,18.1-18.7c0-9.7-6-18.7-18.1-18.7S42.7,11.6,42.8,21.5z"/>
		<path id="XMLID_92_" class="st0" d="M127.7,8.6c-3.1-4.9-8-5.6-12.7-5.7c-4.9,0-12.7,1.8-12.7,8.5c0,5.3,5.8,6.6,12.8,7.9
			c8.1,1.6,16.5,3,16.5,12.1c-0.1,9.5-9.6,11.8-16.6,11.8c-6.5,0-14-2.7-17.2-9.1l2.9-1.4c2.6,5.1,9.2,7.6,14.3,7.6
			s13.4-1.4,13.4-8.9c0.1-6.3-6.9-7.7-13.8-9c-7.7-1.5-15.5-3.1-15.5-10.8C98.9,2.7,108.2,0,115.1,0c6,0,11.2,1,15.4,7.1L127.7,8.6z
			"/>
		<path id="XMLID_91_" class="st0" d="M160.7,3.4h-15.2V0.5h33.6v2.9h-15.2v39.1h-3.2L160.7,3.4L160.7,3.4z"/>
		<path id="XMLID_90_" class="st0" d="M196.2,42.5v-42h3.2v42H196.2z"/>
		<path id="XMLID_89_" class="st0" d="M221.8,0.5l28.3,34.7V0.5h3.2v42H252L223.7,7.8v34.7h-3.3v-42H221.8z"/>
		<path id="XMLID_88_" class="st0" d="M307.4,8.2c-3.7-3.6-8.8-5.4-13.5-5.4c-12.3,0-18.6,9-18.5,18.7c0,9.9,6.3,18.4,18.5,18.4
			c4.5,0,9.2-1.6,12.8-4.9V23.4h-14.6v-2.8h17.7v15.7c-4.4,4.4-9.6,6.8-15.8,6.8c-14.3,0-21.7-10-21.7-21.4C272.2,8.6,281.2,0,294,0
			c5.5,0,11.1,2.1,15.4,6.3L307.4,8.2z"/>
		<path id="XMLID_87_" class="st0" d="M356.7,8.6c-3.1-4.9-8-5.6-12.7-5.7c-4.9,0-12.7,1.8-12.7,8.5c0,5.3,5.8,6.6,12.8,7.9
			c8.1,1.6,16.5,3,16.5,12.1c-0.1,9.5-9.6,11.8-16.6,11.8c-6.5,0-14-2.7-17.2-9.1l2.9-1.4c2.6,5.1,9.2,7.6,14.3,7.6
			s13.4-1.4,13.4-8.9c0.1-6.3-6.9-7.7-13.8-9c-7.7-1.5-15.5-3.1-15.5-10.8c-0.2-8.9,9.1-11.6,16-11.6c6,0,11.2,1,15.4,7.1L356.7,8.6
			z"/>
	</g>
	<line id="XMLID_85_" class="st1" x1="0" y1="62.2" x2="32.6" y2="62.2"/>
	<line id="XMLID_84_" class="st1" x1="328.6" y1="62.2" x2="361.3" y2="62.2"/>
	<g id="XMLID_55_">
		<g id="XMLID_56_">
			<path id="XMLID_83_" class="st0" d="M43.1,56.4v11.7h7.1V69h-8.1V56.4H43.1z"/>
			<path id="XMLID_80_" class="st0" d="M64.4,62.7c0,3.3-2.1,6.5-6.4,6.5s-6.4-3.2-6.4-6.5c0-3.4,2.1-6.5,6.4-6.5
				C62.2,56.2,64.4,59.3,64.4,62.7z M52.6,62.7c0,2.8,1.8,5.6,5.4,5.6s5.4-2.8,5.4-5.6c0-2.9-1.8-5.6-5.4-5.6S52.6,59.7,52.6,62.7z"
				/>
			<path id="XMLID_79_" class="st0" d="M75.8,58.8c-0.9-1.5-2.4-1.7-3.8-1.7c-1.5,0-3.8,0.5-3.8,2.6c0,1.6,1.7,2,3.9,2.4
				c2.4,0.5,5,0.9,5,3.6c0,2.8-2.9,3.5-5,3.5c-2,0-4.2-0.8-5.2-2.7l0.9-0.4c0.8,1.5,2.8,2.3,4.3,2.3s4-0.4,4-2.7
				c0-1.9-2.1-2.3-4.1-2.7c-2.3-0.5-4.7-0.9-4.7-3.2c-0.1-2.7,2.7-3.5,4.8-3.5c1.8,0,3.4,0.3,4.6,2.1L75.8,58.8z"/>
			<path id="XMLID_78_" class="st0" d="M83.4,57.3h-4.6v-0.9h10.1v0.9h-4.5V69h-1V57.3z"/>
			<path id="XMLID_77_" class="st0" d="M97.9,69V56.4h1V69H97.9z"/>
			<path id="XMLID_76_" class="st0" d="M106.2,57.3h-4.6v-0.9h10.1v0.9h-4.6V69h-1V57.3H106.2z"/>
			<path id="XMLID_75_" class="st0" d="M128.1,71.1h-1V56.3h1V71.1z"/>
			<path id="XMLID_74_" class="st0" d="M145.4,56.4v11.7h7.1V69h-8.1V56.4H145.4z"/>
			<path id="XMLID_73_" class="st0" d="M155.3,69V56.4h1V69H155.3z"/>
			<path id="XMLID_72_" class="st0" d="M168.3,58.8c-0.9-1.5-2.4-1.7-3.8-1.7c-1.5,0-3.8,0.5-3.8,2.6c0,1.6,1.7,2,3.9,2.4
				c2.4,0.5,5,0.9,5,3.6c0,2.8-2.9,3.5-5,3.5c-2,0-4.2-0.8-5.2-2.7l0.9-0.4c0.8,1.5,2.8,2.3,4.3,2.3s4-0.4,4-2.7
				c0-1.9-2.1-2.3-4.1-2.7c-2.3-0.5-4.7-0.9-4.7-3.2c-0.1-2.7,2.7-3.5,4.8-3.5c1.8,0,3.4,0.3,4.6,2.1L168.3,58.8z"/>
			<path id="XMLID_71_" class="st0" d="M176,57.3h-4.6v-0.9h10.1v0.9h-4.6V69h-1V57.3H176z"/>
			<path id="XMLID_70_" class="st0" d="M190.5,69V56.4h1V69H190.5z"/>
			<path id="XMLID_69_" class="st0" d="M198.8,57.3h-4.6v-0.9h10.1v0.9h-4.6V69h-1V57.3H198.8z"/>
			<path id="XMLID_68_" class="st0" d="M220.7,71.1h-1V56.3h1V71.1z"/>
			<path id="XMLID_67_" class="st0" d="M237.9,62.4h7.3v0.9h-7.3V69h-1V56.4h8.5v1h-7.5V62.4z"/>
			<path id="XMLID_64_" class="st0" d="M260.7,62.7c0,3.3-2.1,6.5-6.4,6.5s-6.4-3.2-6.4-6.5c0-3.4,2.1-6.5,6.4-6.5
				C258.6,56.2,260.7,59.3,260.7,62.7z M248.9,62.7c0,2.8,1.8,5.6,5.4,5.6s5.4-2.8,5.4-5.6c0-2.9-1.8-5.6-5.4-5.6
				S248.9,59.7,248.9,62.7z"/>
			<path id="XMLID_63_" class="st0" d="M273.7,56.4v7.8c0,6.6-9.7,6.6-9.7,0v-7.8h1v7.8c0,5.4,7.7,5.4,7.7,0v-7.8
				C272.7,56.4,273.7,56.4,273.7,56.4z"/>
			<path id="XMLID_62_" class="st0" d="M278.1,56.4l8.5,10.4V56.4h1V69h-0.4l-8.5-10.4V69h-1V56.4H278.1z"/>
			<path id="XMLID_59_" class="st0" d="M302.2,62.6c0.1,3.2-2,6.4-6.4,6.4c-1.4,0-2.8,0-4.3,0V56.4c1.4,0,2.8,0,4.3,0
				C300.1,56.4,302.1,59.5,302.2,62.6z M292.5,57.3V68h3.3c3.7,0,5.5-2.8,5.4-5.5c-0.1-2.6-1.8-5.2-5.4-5.2H292.5z"/>
			<path id="XMLID_58_" class="st0" d="M311.5,69V56.4h1V69H311.5z"/>
			<path id="XMLID_57_" class="st0" d="M319.8,57.3h-4.6v-0.9h10.1v0.9h-4.6V69h-1V57.3H319.8z"/>
		</g>
	</g>
</g>
</svg>
